# xmcd
#
# Track frame offsets: 
#        150
#        10842
#        21597
#        39832
#        57732
#        81485
#        94967
#        113620
#        128257
#        144872
#
# Disc length: 2116 seconds
#
# Revision: 2
# Processed by: cddbd v1.4PL0 Copyright (c) Steve Scherf et al.
# Submitted via: ExactAudioCopy v0.90b4
#
DISCID=7b08420a
DTITLE=Ronnie Milsap - Super Hits
DYEAR=1900
DGENRE=Country
TTITLE0=Pure Love
TTITLE1=Daydreams About Night Things
TTITLE2=Nobody Likes Sad Songs
TTITLE3=What A Difference You've Make In My Life
TTITLE4=Still Losing You
TTITLE5=(I'm A) Stand By My Woman Man
TTITLE6=Why Don't You Spend The Night
TTITLE7=(There's) No Gettin' Over Me
TTITLE8=Any Day Now
TTITLE9=Snap Your Fingers
EXTD=
EXTT0=
EXTT1=
EXTT2=
EXTT3=
EXTT4=
EXTT5=
EXTT6=
EXTT7=
EXTT8=
EXTT9=
PLAYORDER=
